<svg xmlns="http://www.w3.org/2000/svg" width="41" height="36" viewBox="0 0 41 36">
    <path fill="#C71222" fill-rule="evenodd" d="M29.009 1.605c5.283 0 9.567 4.3 9.567 9.603a9.586 9.586 0 0 1-2.947 6.928L20.178 33.723 4.445 17.855a9.583 9.583 0 0 1-2.668-6.647c0-5.304 4.284-9.603 9.568-9.603 3.98 0 7.39 2.44 8.833 5.91 1.442-3.47 4.852-5.91 8.832-5.91h-.001zm0-1.605c-3.52 0-6.752 1.64-8.833 4.344A11.121 11.121 0 0 0 11.343 0C5.185 0 .176 5.029.176 11.208c0 2.904 1.106 5.66 3.114 7.76L20.176 36l16.586-16.73a11.116 11.116 0 0 0 3.414-8.06c0-6.181-5.01-11.208-11.167-11.208V0z"/>
</svg>
