<svg xmlns="http://www.w3.org/2000/svg" width="40" height="38" viewBox="0 0 40 38">
    <g fill="#C71222" fill-rule="evenodd">
        <path d="M29.592 14.55c-2.724 0-5.57 2.46-8.906 2.809v-1.421c.019-3.49 2.636-7.087 7.011-7.087h.83c4.025 0 8.163-3.183 8.605-8.551h-1.428c-.427 4.478-3.85 7.125-7.177 7.125h-.83c-5.176 0-8.389 4.376-8.435 8.463h-.003v.054l-.001.035h.001v1.383c-3.337-.349-6.182-2.808-8.905-2.808C7.422 14.552 0 20.362 0 31.751 0 37.518 3.896 37.7 4.393 37.7h.051c2.42 0 4.654-1.162 7.446-3.952s3.908-3.521 5.932-3.521h4.304c2.025 0 3.14.732 5.932 3.521 2.792 2.79 5.025 3.952 7.445 3.952h.052c.495 0 4.391-.182 4.391-5.949 0-11.388-7.421-17.199-10.353-17.199l-.001-.001zm5.276 20.95l-.034-.001h-.033c-2.011 0-3.915-1.031-6.37-3.447-2.712-2.67-4.181-3.842-6.869-3.842h-4.258c-2.687 0-4.157 1.172-6.869 3.842-2.454 2.416-4.359 3.447-6.37 3.447l.004-.004-.054.004c-.69 0-2.935-.318-2.935-4.413C1.08 20.472 8.1 15.7 9.915 15.7c1.065 0 2.33.56 3.668 1.152 1.708.755 3.643 1.61 5.862 1.628 2.195-.017 4.13-.874 5.84-1.628 1.339-.593 2.602-1.152 3.668-1.152 1.812 0 8.834 4.772 8.834 15.386 0 4.096-2.246 4.413-2.92 4.414z"/>
        <path d="M12.092 20.1H10.58v3.08H7.557v1.54h3.023v3.08h1.512v-3.08h3.023v-1.54h-3.023zM26.991 21.2c-1.192 0-2.16.984-2.16 2.2 0 1.215.968 2.2 2.16 2.2 1.193 0 2.159-.985 2.159-2.2 0-1.216-.966-2.2-2.159-2.2zm-.54 2.2a.546.546 0 0 1-.54-.55c0-.304.243-.55.54-.55.296 0 .54.246.54.55 0 .304-.243.55-.54.55zM32.39 23.4c-1.193 0-2.16.984-2.16 2.2 0 1.216.967 2.2 2.16 2.2s2.158-.985 2.158-2.2c0-1.216-.966-2.2-2.159-2.2zm-.54 2.2a.547.547 0 0 1-.541-.55c0-.304.243-.55.54-.55.299 0 .54.246.54.55 0 .303-.241.55-.54.55z"/>
    </g>
</svg>
