<svg xmlns="http://www.w3.org/2000/svg" width="22" height="36" viewBox="0 0 22 36">
    <g fill="none" fill-rule="evenodd">
        <path fill="#C71222" d="M19.858.007H2.14C1.145.007.336.818.336 1.813V34.19c0 .997.809 1.805 1.805 1.805h17.717c.996 0 1.805-.808 1.805-1.805V1.812c0-.996-.81-1.804-1.805-1.804zm.472 34.182c0 .26-.211.471-.471.471H2.142a.472.472 0 0 1-.47-.471V28h18.66v6.188h-.002zm0-7.521H1.67V5.364h18.66v21.303zm0-22.636H1.67v-2.22c0-.26.211-.472.471-.472h17.717c.26 0 .47.212.47.472v2.22h.002z"/>
        <path fill="#EE1A21" d="M9.001 30.661H13v1.333H9.001V30.66z"/>
    </g>
</svg>
