<svg xmlns="http://www.w3.org/2000/svg" width="29" height="40" viewBox="0 0 29 40">
    <g fill="#C71222" fill-rule="evenodd">
        <path d="M14.464 9c-2.099 0-3.75 1.54-3.75 3.5s1.65 3.5 3.75 3.5 3.75-1.54 3.75-3.5S16.565 9 14.464 9zm-.535 5c-1.215 0-2.143-.866-2.143-2s.928-2 2.143-2c1.214 0 2.142.866 2.142 2s-.928 2-2.142 2z"/>
        <path d="M21.695 23.667V11.4c0-3.733-2.675-8.8-7.231-11.4-4.557 2.6-7.232 7.667-7.232 11.467v12.266L0 32h28.929l-7.232-8.334-.002.001zM7.5 31H3.214L7.5 26v5zm12.856 0H8.57V11.844c0-2.993 2.062-7.317 5.893-9.844 3.83 2.528 5.893 6.785 5.893 9.844V31h-.001zm1.073-5l4.285 5H21.43v-5zM13.929 33H15v7h-1.071zM17.143 33h1.071v4h-1.071zM10.714 33h1.072v4h-1.072v-4z"/>
    </g>
</svg>
