<svg xmlns="http://www.w3.org/2000/svg" width="40" height="38" viewBox="0 0 40 38">
    <g fill="#C71222" fill-rule="evenodd">
        <path d="M20 0C8.917 0 0 8.471 0 19s8.917 19 20 19 20-8.471 20-19S31.083 0 20 0zm0 36.416C9.917 36.416 1.667 28.58 1.667 19S9.917 1.584 20 1.584C30.083 1.584 38.333 9.42 38.333 19S30.083 36.416 20 36.416z"/>
        <path d="M29.95 21.8c-.412-.134-.904-.066-1.067.266-1.805 2.867-5.334 4.6-9.19 4.6-3.938 0-7.384-1.733-9.188-4.6-.165-.333-.657-.466-1.067-.266-.41.134-.573.534-.41.866C11.078 25.933 15.1 28 19.694 28c4.512 0 8.615-2.066 10.584-5.334.247-.334.082-.733-.327-.866h-.002zM15.59 14.666c0 1.105-1.102 2-2.462 2s-2.462-.895-2.462-2 1.102-2 2.462-2 2.461.895 2.461 2zM28.718 14.666c0 1.105-1.101 2-2.461 2-1.36 0-2.462-.895-2.462-2s1.102-2 2.462-2 2.461.895 2.461 2z"/>
    </g>
</svg>
