<svg xmlns="http://www.w3.org/2000/svg" width="40" height="40" viewBox="0 0 40 40">
    <g fill="#C71222" fill-rule="evenodd">
        <path d="M38.74 8.338h-5.412V3.766A3.757 3.757 0 0 0 29.57.008H3.767A3.758 3.758 0 0 0 .01 3.766v34.973c0 .692.561 1.253 1.254 1.253H38.74c.692 0 1.253-.56 1.253-1.253V9.591c0-.693-.561-1.253-1.253-1.253h-.002zM3.765 1.673h25.803c1.153 0 2.092.94 2.092 2.093v4.572H1.673V3.766c0-1.154.94-2.093 2.093-2.093zm34.56 36.654H1.676V10.005h36.652v28.322z"/>
        <path d="M26.664 24.166a4.165 4.165 0 1 0 8.33-.002 4.165 4.165 0 0 0-8.33.002zm6.664 0a2.5 2.5 0 0 1-4.998 0 2.502 2.502 0 0 1 2.5-2.499 2.5 2.5 0 0 1 2.498 2.499z"/>
    </g>
</svg>
